<svg version="1.1" id="Layer_1" xmlns="http://www.w3.org/2000/svg" xmlns:xlink="http://www.w3.org/1999/xlink" x="0px" y="0px"
	 width="100%" viewBox="0 0 400 352" enable-background="new 0 0 400 352" xml:space="preserve">
<path fill="#000000" opacity="1.000000" stroke="none" 
	d="
M136.057678,73.748993 
	C149.539276,73.710335 149.565872,73.703583 152.717361,86.120720 
	C158.647476,109.485901 164.518723,132.866074 170.507599,156.216141 
	C170.924347,157.841003 170.748886,159.946716 172.744141,160.941177 
	C175.303055,160.068710 174.802979,157.611053 175.222656,155.871307 
	C181.110489,131.463699 186.874039,107.026070 192.654114,82.592499 
	C194.418884,75.132401 195.966522,73.852097 203.532394,73.737610 
	C218.231461,73.515160 218.244629,73.512032 221.650513,87.849068 
	C227.222107,111.302727 232.784271,134.758636 238.312180,158.222610 
	C238.660828,159.702591 239.008667,161.076630 240.481979,162.265564 
	C243.401703,158.938721 243.487839,154.771225 244.462921,151.090424 
	C250.467773,128.423172 256.165619,105.674828 262.039795,82.972656 
	C264.170990,74.736275 265.615112,73.739410 274.233246,73.740509 
	C275.732727,73.740700 277.232208,73.740860 278.731689,73.743935 
	C286.819702,73.760544 288.181122,75.554657 285.739227,83.386398 
	C275.338196,116.745125 264.908569,150.094971 254.445724,183.434357 
	C252.147736,190.756760 250.775803,191.686203 242.991470,191.934006 
	C228.057861,192.409409 227.971207,192.316330 224.571915,178.043732 
	C219.254608,155.718079 213.906403,133.399734 208.529236,111.088425 
	C208.157669,109.546692 207.960556,107.817894 206.523560,106.743828 
	C204.349396,107.526520 204.559708,109.383530 204.189270,110.930351 
	C198.572601,134.384491 192.961807,157.840042 187.336304,181.292068 
	C185.001999,191.023514 184.176544,191.647446 174.183563,191.441940 
	C161.079071,191.172424 161.353409,193.871078 156.597855,178.078491 
	C147.145508,146.688370 137.560577,115.338158 128.022720,83.973801 
	C125.330154,75.119576 126.321854,73.765587 136.057678,73.748993 
z"/>
<path fill="#000000" opacity="1.000000" stroke="none" 
	d="
M78.091690,257.819275 
	C116.909470,270.886047 156.359482,277.830994 196.963348,278.811523 
	C237.619324,279.793335 277.166443,272.947662 316.130341,262.902344 
	C318.874542,268.110840 323.029694,269.444580 330.235565,267.510895 
	C333.303497,266.687622 336.144104,265.761902 339.480988,266.510468 
	C342.460876,267.178925 344.379700,264.883453 345.725861,262.457397 
	C348.009491,258.341736 350.992889,258.684113 354.594910,260.810394 
	C354.284210,263.714783 351.873901,264.643372 350.102844,265.875397 
	C326.663666,282.181000 300.386780,292.064789 272.964722,298.966705 
	C248.023834,305.244141 222.631302,308.604187 196.825943,308.141815 
	C136.748886,307.065338 81.741371,290.208069 32.453472,255.454102 
	C23.190872,248.922836 14.034791,242.273376 5.805220,234.442184 
	C3.855464,232.586792 1.444759,230.553421 3.435147,227.661148 
	C5.558741,224.575333 8.449011,225.944611 10.981723,227.438049 
	C32.144260,239.916611 54.464550,249.834244 78.091690,257.819275 
z"/>
<path fill="#000000" opacity="1.000000" stroke="none" 
	d="
M33.059406,97.249496 
	C28.742201,98.684975 27.134792,96.904488 26.758385,93.128487 
	C25.786716,83.381020 26.797838,81.059944 35.781040,77.334961 
	C52.859871,70.253036 70.540489,68.413307 88.557465,73.050766 
	C103.361595,76.861252 112.874702,88.982498 114.333313,105.051338 
	C115.660919,119.676842 114.938599,134.337463 114.990265,148.981461 
	C115.025787,159.050476 115.413589,168.949356 120.655190,177.985184 
	C122.454514,181.086975 121.484116,183.602127 118.695549,185.787674 
	C106.924683,195.013214 105.068329,194.716797 96.764282,181.963120 
	C96.045059,180.858521 95.230103,179.816238 94.448959,178.730209 
	C91.694855,178.880249 90.344170,180.985992 88.661682,182.449127 
	C75.256142,194.107010 59.693222,196.978943 42.887741,192.910965 
	C29.320780,189.626877 20.728340,178.193466 19.046728,162.862183 
	C17.473446,148.518570 24.915613,134.490295 37.746357,127.445755 
	C49.250599,121.129509 61.643639,120.933769 74.205658,122.146164 
	C78.665672,122.576599 83.102875,123.385124 87.500626,124.269119 
	C90.420143,124.855972 92.125694,124.250771 92.027199,120.991455 
	C91.881477,116.169472 92.084213,111.290703 91.405632,106.540833 
	C90.047249,97.032501 83.712585,91.586456 73.816864,90.343262 
	C59.648075,88.563232 46.376163,91.781998 33.059406,97.249496 
M71.401848,138.290649 
	C65.051414,138.100433 58.755138,138.242172 52.884686,141.164017 
	C45.511723,144.833679 42.104568,152.430679 43.391705,162.370560 
	C44.346100,169.740860 48.613716,173.988281 56.619629,176.019211 
	C62.058067,177.398849 67.195274,176.103134 72.309235,174.709396 
	C86.541565,170.830612 94.300209,159.159851 92.682381,144.601028 
	C92.383789,141.914047 90.938721,140.836624 88.633316,140.334473 
	C83.267334,139.165680 77.854698,138.360596 71.401848,138.290649 
z"/>
<path fill="#000000" opacity="1.000000" stroke="none" 
	d="
M327.737244,139.376083 
	C321.598969,137.538391 315.929688,135.614349 310.954529,132.093506 
	C289.812714,117.131836 292.375305,87.025146 316.070374,75.782043 
	C334.115112,67.219963 352.417603,69.325478 370.312073,76.680199 
	C375.974487,79.007477 378.633636,88.244240 375.682068,93.488403 
	C373.720917,96.972839 370.764832,95.460609 368.220398,94.351364 
	C358.377930,90.060532 348.106812,88.625801 337.459198,89.315826 
	C333.927155,89.544724 330.536743,90.325607 327.316559,91.738655 
	C322.444977,93.876312 319.805756,97.734314 319.419708,102.982414 
	C319.045258,108.072998 321.233765,112.027359 325.448639,114.839363 
	C330.507660,118.214531 336.306366,119.844086 341.990051,121.738213 
	C348.778809,124.000603 355.670715,125.999840 362.328766,128.597900 
	C374.797394,133.463287 382.114502,142.584229 382.814301,156.130997 
	C383.485504,169.124359 378.199860,179.507065 367.277832,186.659744 
	C355.299103,194.504440 341.841492,196.151733 327.947876,194.890305 
	C319.985504,194.167374 312.166779,192.471359 304.685608,189.464767 
	C296.354645,186.116653 294.370087,182.949310 295.273346,174.161194 
	C295.830444,168.740982 297.775879,167.343475 302.920807,169.560181 
	C312.219177,173.566376 321.875549,175.796707 331.933472,176.361374 
	C338.650330,176.738449 345.245270,175.994370 351.436340,173.163498 
	C356.946808,170.643814 359.791656,166.383835 359.901947,160.182434 
	C360.011444,154.029678 356.875763,150.146149 351.719635,147.588943 
	C344.213959,143.866470 335.963470,142.255005 327.737244,139.376083 
z"/>
<path fill="#000000" opacity="1.000000" stroke="none" 
	d="
M376.692444,237.198425 
	C368.852753,234.156448 361.014587,234.437241 353.222717,234.729935 
	C345.244995,235.029617 337.281952,235.704117 329.307922,236.129044 
	C327.692383,236.215134 325.723541,236.425217 324.956665,234.494537 
	C324.090942,232.315186 325.839569,231.084122 327.256470,229.988144 
	C334.007263,224.766342 341.975403,222.299377 350.097656,220.383240 
	C362.916473,217.359100 375.861603,217.242142 388.747681,219.863663 
	C397.332153,221.610077 399.758362,224.300735 399.163483,232.828796 
	C397.696136,253.862701 390.710968,272.730774 375.726685,288.113068 
	C374.918091,288.943146 374.022888,289.718750 373.064087,290.365753 
	C371.526581,291.403229 369.829285,292.450958 368.035278,291.052002 
	C366.234283,289.647552 366.835144,287.824188 367.530823,286.042938 
	C371.284302,276.432556 375.214355,266.879578 377.812378,256.867004 
	C378.856964,252.841217 379.607697,248.746994 379.757568,244.564835 
	C379.857452,241.778214 379.346924,239.252884 376.692444,237.198425 
z"/>
</svg>